<?xml version="1.0" encoding="UTF-8"?>
<svg viewBox="0 0 100 100" xmlns="http://www.w3.org/2000/svg">
  <!-- Clean white background for visibility -->
  <rect width="100" height="100" fill="white" rx="8"/>

  <!-- Official PP Logo - matching the Builder.io design exactly -->
  <g transform="translate(15, 20)">
    <!-- First P - bold and clear -->
    <path
      d="M0 0 L0 60 L8 60 L8 35 L25 35 C30 35 32 30 32 25 C32 20 30 15 25 15 L8 15 L8 0 Z M8 7 L25 7 C27 7 28 10 28 15 C28 20 27 23 25 23 L8 23 Z"
      fill="#dc2626"
      stroke="none"
    />

    <!-- Second P - bold and clear -->
    <path
      d="M40 0 L40 60 L48 60 L48 35 L65 35 C70 35 72 30 72 25 C72 20 70 15 65 15 L48 15 L48 0 Z M48 7 L65 7 C67 7 68 10 68 15 C68 20 67 23 65 23 L48 23 Z"
      fill="#dc2626"
      stroke="none"
    />
  </g>
</svg>
